<svg width="477" height="141" viewBox="0 0 477 141" fill="none" xmlns="http://www.w3.org/2000/svg">
<path d="M67.5651 120.141C67.5181 120.27 67.5022 120.408 67.5185 120.545C67.5348 120.682 67.5829 120.813 67.6591 120.929C67.7353 121.045 67.8375 121.143 67.9579 121.214C68.0782 121.286 68.2134 121.329 68.353 121.341C81.5514 122.469 116.347 120.642 117.368 101.158C117.833 92.2757 103.328 78.6476 115.344 73.096C125.337 68.4996 133.443 63.539 139.664 58.2143C146.827 52.0717 152.772 34.9873 140.666 29.4716C137.328 27.9503 159.112 25.2809 125.687 25.2809C92.2625 25.2809 125.544 25.651 92.557 25.2809C91.8287 25.2689 61.3064 25.2809 61.3064 25.2809L46.9798 2.00018C81.4233 2.02406 111.088 2.16149 145.735 2.41221C154.784 2.48384 161.219 3.14645 165.04 4.40002C176.734 8.2682 186.35 18.1894 186.601 30.9938C187.013 52.5732 162.801 66.6132 145.806 73.9735C145.527 74.0972 145.277 74.279 145.073 74.5069C144.87 74.7347 144.717 75.0033 144.626 75.2948C144.534 75.5863 144.506 75.894 144.543 76.1973C144.58 76.5006 144.681 76.7926 144.839 77.0537C172.31 122.756 113.571 136.437 83.4318 136.975C64.9863 137.309 46.6542 137.434 28.4356 137.351C28.2512 137.349 28.0698 137.304 27.9063 137.219C27.7429 137.133 27.602 137.011 27.4953 136.86C27.3886 136.71 27.3192 136.536 27.2928 136.354C27.2663 136.171 27.2836 135.985 27.3432 135.811L49.5852 73.0244C49.6341 72.8892 49.6497 72.7442 49.6307 72.6017C49.6117 72.4592 49.5587 72.3234 49.4762 72.2057C49.3936 72.088 49.2839 71.992 49.1564 71.9256C49.0289 71.8593 48.8873 71.8246 48.7435 71.8245L42.2428 71.8066C42.0653 71.8052 41.8919 71.7482 41.7475 71.6437C41.6031 71.5393 41.4953 71.3929 41.4395 71.2256C41.3837 71.0582 41.3829 70.8787 41.4372 70.7128C41.4914 70.5468 41.5979 70.4031 41.7414 70.3023L70.6095 49.0273C71.1467 48.6214 71.6601 48.6572 72.1496 49.1348L93.4783 70.2486C93.6025 70.3703 93.6877 70.5261 93.7232 70.6963C93.7587 70.8665 93.7428 71.0435 93.6776 71.2046C93.6123 71.3658 93.5007 71.504 93.3568 71.6016C93.2129 71.6992 93.0433 71.7519 92.8694 71.7529L85.7061 71.8066C85.0733 71.8066 84.6495 72.1111 84.4346 72.7199L67.5651 120.141Z" fill="url(#paint0_linear_953_213)"/>
<path d="M32.653 2.00018H44.2934L58.62 25.2809H46.9796L32.653 2.00018Z" fill="#FFA037"/>
<path d="M18.3268 2.00018H29.9671L44.2937 25.2809H32.6533L18.3268 2.00018Z" fill="#FC8E15"/>
<path d="M4 2H15.6404L29.9669 25.2807H18.3266L4 2Z" fill="#E36917"/>
<path d="M197.884 110.786H197.158L196.933 111.477C195.096 117.122 189.477 120.907 181.879 120.907C176.608 120.907 172.325 119.034 169.356 115.855C166.38 112.669 164.652 108.092 164.652 102.565V102.216H218.409H219.409V101.216V94.5439C219.409 82.127 215.698 71.8002 208.952 64.5685C202.198 57.3291 192.49 53.2867 180.694 53.2867C168.7 53.2867 158.841 57.5434 151.989 65.1432C145.147 72.7318 141.386 83.56 141.386 96.568C141.386 109.611 145.109 120.262 152.049 127.661C158.996 135.067 169.06 139.1 181.509 139.1C201.493 139.1 216.266 128.299 218.73 111.935L218.904 110.786H217.742H197.884ZM236.135 37.4941H235.135V38.4941V56.0109H224.947H223.947V57.0109V73.5036V74.5036H224.947H235.135V115.71C235.135 123.679 236.982 129.524 241.452 133.33C245.879 137.099 252.666 138.675 262.069 138.675C266.48 138.675 270.27 138.298 272.598 137.749L273.368 137.567V136.776V120.658V119.475L272.202 119.672C270.937 119.885 268.994 120.033 267.107 120.033C264.054 120.033 262.024 119.33 260.748 118.086C259.477 116.847 258.771 114.89 258.771 111.962V74.5036H272.442H273.442V73.5036V57.0109V56.0109H272.442H258.771V38.4941V37.4941H257.771H236.135ZM350.409 81.0753H351.428L351.409 80.0563C351.255 71.9606 347.8 65.2298 341.79 60.5449C335.801 55.8763 327.341 53.2867 317.214 53.2867C306.873 53.2867 298.268 55.8346 292.223 60.4247C286.152 65.0337 282.723 71.6612 282.723 79.6255C282.723 85.7852 284.735 90.9912 288.74 95.0926C292.725 99.1727 298.61 102.089 306.247 103.84L306.251 103.841L320.906 107.136C320.908 107.136 320.911 107.137 320.914 107.138C324.429 107.99 326.688 108.941 328.063 110.074C329.366 111.15 329.922 112.43 329.922 114.185C329.922 116.442 328.877 118.276 326.865 119.589C324.814 120.927 321.73 121.731 317.733 121.731C313.578 121.731 310.338 120.789 308.037 119.128C305.755 117.481 304.31 115.068 303.828 111.934L303.697 111.086H302.839H281.722H280.644L280.725 112.162C281.339 120.276 285.036 127.047 291.329 131.768C297.603 136.476 306.39 139.1 317.14 139.1C327.778 139.1 336.84 136.458 343.269 131.717C349.722 126.959 353.484 120.109 353.484 111.861C353.484 105.668 351.811 100.792 347.97 97.0169C344.171 93.2821 338.362 90.7354 330.327 88.9205L330.319 88.9187L315.148 85.6243C315.145 85.6236 315.142 85.6229 315.139 85.6222C311.723 84.8126 309.297 83.7701 307.743 82.5272C306.228 81.3161 305.544 79.9233 305.544 78.2761C305.544 76.0467 306.581 74.1851 308.497 72.8453C310.441 71.4866 313.315 70.6549 316.918 70.6549C320.762 70.6549 323.807 71.6095 325.921 73.2394C328.016 74.8544 329.276 77.1898 329.48 80.1441L329.544 81.0753H330.477H350.409ZM364.088 137.518L364.212 138.375H365.078H386.714H387.586L387.704 137.511L397.339 67.1558C397.555 65.5799 395.934 64.3948 394.498 65.0787L375.074 74.328L356.75 64.2497C355.303 63.4542 353.571 64.6542 353.806 66.2878L364.088 137.518ZM400.275 137.375V138.375H401.275H422.911H423.911V137.375V91.2708C423.911 86.2533 425.39 82.1015 427.947 79.2181C430.493 76.3469 434.177 74.6536 438.767 74.6536C443.407 74.6536 446.749 76.0787 448.95 78.619C451.172 81.1837 452.364 85.0368 452.364 90.1463V137.375V138.375H453.364H475H476V137.375V85.5733C476 75.998 473.473 68.214 468.572 62.8141C463.658 57.4003 456.474 54.5116 447.436 54.5116C441.161 54.5116 435.814 56.014 431.478 58.8442C428.029 61.095 425.256 64.1616 423.17 67.9092V57.0109V56.0109H422.17H401.275H400.275V57.0109V137.375ZM196.52 86.7969H164.975C166.071 77.7505 172.381 71.4795 180.916 71.4795C185.475 71.4795 189.265 73.1409 191.974 75.9774C194.496 78.6182 196.129 82.3306 196.52 86.7969Z" fill="white" stroke="#252A2E" stroke-width="2"/>
<path d="M371.532 63.4443C366.028 60.6547 360.528 57.8615 355.038 55.0424C353.349 54.1755 352.217 53.0789 352.217 51.16C352.22 44.3066 352.22 37.4544 352.217 30.6035C352.217 30.3786 352.273 30.1575 352.379 29.961C352.486 29.7645 352.639 29.5991 352.825 29.4805C353.011 29.3618 353.224 29.2938 353.443 29.2829C353.661 29.272 353.879 29.3185 354.076 29.418C359.717 32.2878 365.423 35.1983 371.194 38.1496C372.945 39.0498 373.751 40.1982 373.759 42.1728C373.778 48.6952 373.779 55.2152 373.762 61.7328C373.759 63.3924 373.218 64.3 371.532 63.4443ZM359.345 40.183C359.566 40.0467 359.742 39.8392 359.864 39.5723C359.985 39.3055 360.049 38.9845 360.053 38.6278C360.057 38.271 360 37.8855 359.886 37.4931C359.772 37.1008 359.602 36.7093 359.387 36.3411C359.172 35.9729 358.915 35.6352 358.632 35.3471C358.349 35.0591 358.045 34.8265 357.737 34.6625C357.428 34.4985 357.123 34.4064 356.836 34.3914C356.55 34.3764 356.29 34.4389 356.069 34.5752C355.848 34.7115 355.672 34.919 355.551 35.1858C355.429 35.4526 355.365 35.7736 355.361 36.1304C355.357 36.4871 355.414 36.8727 355.528 37.265C355.643 37.6573 355.812 38.0488 356.027 38.417C356.243 38.7852 356.499 39.123 356.782 39.411C357.065 39.699 357.37 39.9317 357.678 40.0957C357.986 40.2597 358.292 40.3518 358.578 40.3667C358.864 40.3817 359.125 40.3193 359.345 40.183ZM369.935 45.5906C370.382 45.3169 370.638 44.7587 370.649 44.0389C370.66 43.319 370.423 42.4965 369.992 41.7521C369.56 41.0078 368.969 40.4026 368.348 40.0698C367.728 39.737 367.128 39.7038 366.682 39.9774C366.235 40.2511 365.979 40.8093 365.968 41.5291C365.957 42.249 366.194 43.0716 366.625 43.8159C367.057 44.5603 367.648 45.1654 368.269 45.4982C368.889 45.831 369.489 45.8642 369.935 45.5906ZM364.635 49.3438C365.08 49.0706 365.336 48.5133 365.347 47.7944C365.357 47.0755 365.121 46.2539 364.69 45.5104C364.476 45.1423 364.222 44.8044 363.94 44.516C363.658 44.2276 363.356 43.9945 363.049 43.8298C362.742 43.6651 362.437 43.5722 362.151 43.5563C361.866 43.5403 361.605 43.6018 361.385 43.737C360.939 44.0102 360.683 44.5676 360.673 45.2865C360.662 46.0054 360.899 46.8269 361.33 47.5704C361.543 47.9386 361.798 48.2765 362.079 48.5648C362.361 48.8532 362.664 49.0864 362.971 49.2511C363.278 49.4157 363.582 49.5087 363.868 49.5246C364.154 49.5405 364.414 49.4791 364.635 49.3438ZM359.432 53.0552C359.877 52.7804 360.13 52.2208 360.137 51.4995C360.143 50.7782 359.902 49.9542 359.467 49.2089C359.031 48.4636 358.437 47.858 357.815 47.5252C357.192 47.1925 356.593 47.16 356.148 47.4347C355.703 47.7095 355.45 48.2691 355.443 48.9904C355.437 49.7117 355.678 50.5357 356.113 51.281C356.549 52.0263 357.143 52.632 357.766 52.9647C358.388 53.2974 358.987 53.33 359.432 53.0552ZM369.873 58.3718C370.093 58.2357 370.269 58.0284 370.39 57.7616C370.511 57.4949 370.575 57.1739 370.578 56.817C370.582 56.4601 370.524 56.0744 370.409 55.6817C370.295 55.2891 370.125 54.8973 369.909 54.5287C369.475 53.7842 368.881 53.1793 368.259 52.8472C367.637 52.5151 367.037 52.4829 366.593 52.7576C366.373 52.8937 366.197 53.101 366.076 53.3678C365.955 53.6345 365.891 53.9555 365.888 54.3124C365.884 54.6692 365.942 55.055 366.056 55.4477C366.171 55.8403 366.341 56.2321 366.556 56.6008C366.991 57.3452 367.585 57.9501 368.207 58.2822C368.829 58.6143 369.428 58.6466 369.873 58.3718Z" fill="url(#paint1_linear_953_213)"/>
<path d="M395.702 54.7878C390.068 57.6536 384.452 60.538 378.818 63.4001C377.752 63.9421 376.373 64.0943 376.369 62.4275C376.362 55.5946 376.359 48.7592 376.362 41.9213C376.365 39.9539 377.543 38.8736 379.269 37.9901C384.929 35.0921 390.522 32.235 396.048 29.4186C396.243 29.3191 396.459 29.2724 396.676 29.2828C396.894 29.2932 397.105 29.3604 397.29 29.4781C397.475 29.5958 397.628 29.7601 397.735 29.9555C397.842 30.151 397.898 30.3712 397.899 30.5954C397.926 37.1363 397.923 43.7304 397.892 50.3777C397.881 52.3786 397.406 53.9192 395.702 54.7878ZM390.778 40.2122C391.223 40.4875 391.823 40.4549 392.445 40.1215C393.067 39.7881 393.662 39.1812 394.097 38.4344C394.532 37.6875 394.773 36.8618 394.767 36.139C394.76 35.4162 394.507 34.8555 394.062 34.5801C393.618 34.3048 393.018 34.3374 392.396 34.6708C391.773 35.0042 391.179 35.6111 390.744 36.358C390.308 37.1048 390.067 37.9305 390.074 38.6533C390.08 39.3761 390.334 39.9369 390.778 40.2122ZM385.5 49.3846C385.946 49.6588 386.546 49.6252 387.167 49.2911C387.788 48.957 388.38 48.3498 388.812 47.603C389.244 46.8563 389.481 46.0312 389.471 45.3093C389.46 44.5873 389.204 44.0277 388.757 43.7535C388.311 43.4792 387.711 43.5129 387.09 43.847C386.469 44.1811 385.877 44.7883 385.446 45.535C385.014 46.2817 384.777 47.1068 384.787 47.8287C384.797 48.5507 385.054 49.1103 385.5 49.3846ZM380.277 58.4312C380.498 58.5667 380.758 58.6281 381.044 58.6119C381.329 58.5956 381.635 58.502 381.942 58.3364C382.249 58.1708 382.552 57.9364 382.835 57.6467C383.117 57.357 383.372 57.0175 383.586 56.6478C383.8 56.278 383.968 55.8852 384.081 55.4917C384.194 55.0983 384.25 54.7119 384.245 54.3546C384.24 53.9973 384.175 53.6761 384.053 53.4094C383.931 53.1427 383.755 52.9356 383.534 52.8001C383.314 52.6645 383.053 52.6032 382.767 52.6194C382.482 52.6357 382.176 52.7293 381.869 52.8949C381.562 53.0605 381.259 53.2949 380.977 53.5846C380.695 53.8743 380.439 54.2138 380.225 54.5835C380.012 54.9533 379.843 55.3461 379.73 55.7395C379.617 56.133 379.561 56.5194 379.566 56.8767C379.571 57.234 379.636 57.5552 379.758 57.8219C379.88 58.0886 380.056 58.2957 380.277 58.4312Z" fill="url(#paint2_linear_953_213)"/>
<defs>
<linearGradient id="paint0_linear_953_213" x1="106.944" y1="2.00018" x2="106.944" y2="137.376" gradientUnits="userSpaceOnUse">
<stop stop-color="#FF9315"/>
<stop offset="1" stop-color="#D24F17"/>
</linearGradient>
<linearGradient id="paint1_linear_953_213" x1="362.996" y1="29.2813" x2="362.996" y2="63.7719" gradientUnits="userSpaceOnUse">
<stop stop-color="#FF9315"/>
<stop offset="1" stop-color="#D24F17"/>
</linearGradient>
<linearGradient id="paint2_linear_953_213" x1="387.139" y1="29.2813" x2="387.139" y2="63.7719" gradientUnits="userSpaceOnUse">
<stop stop-color="#FF9315"/>
<stop offset="1" stop-color="#D24F17"/>
</linearGradient>
</defs>
</svg>
